<?xml version="1.0" encoding="UTF-8"?>
<svg id="Layer_1" xmlns="http://www.w3.org/2000/svg" viewBox="0 0 1069.08 348.39">
  <defs>
    <style>.cls-1{fill:#f7931e;}</style>
  </defs>
  <path class="cls-1" d="M87.1,172.53C38.99,172.53,0,211.52,0,259.63s38.99,87.1,87.1,87.1,87.1-38.99,87.1-87.1-38.99-87.1-87.1-87.1ZM87.1,305.99c-25.6,0-46.36-20.76-46.36-46.36s20.76-46.36,46.36-46.36,46.36,20.76,46.36,46.36-20.76,46.36-46.36,46.36Z"/>
  <path class="cls-1" d="M664.64,174.19c-48.1,0-87.1,38.99-87.1,87.1s38.99,87.1,87.1,87.1,87.1-38.99,87.1-87.1-38.99-87.1-87.1-87.1ZM664.64,307.65c-25.6,0-46.36-20.76-46.36-46.36s20.76-46.36,46.36-46.36,46.36,20.76,46.36,46.36-20.76,46.36-46.36,46.36Z"/>
  <path class="cls-1" d="M981.98,170.22c-48.1,0-87.1,38.99-87.1,87.1s38.99,87.1,87.1,87.1,87.1-38.99,87.1-87.1-38.99-87.1-87.1-87.1ZM981.98,303.68c-25.6,0-46.36-20.76-46.36-46.36s20.76-46.36,46.36-46.36,46.36,20.76,46.36,46.36-20.76,46.36-46.36,46.36Z"/>
  <rect class="cls-1" x="799.54" width="47.85" height="346.72"/>
  <path class="cls-1" d="M529.69,259.63c0-48.1-38.99-87.1-87.1-87.1-26.79,0-50.75,12.1-66.73,31.13-15.98-19.03-39.94-31.13-66.73-31.13-48.1,0-87.1,38.99-87.1,87.09h0v87.1h40.74v-87.09c0-25.6,20.76-46.36,46.36-46.36s46.36,20.76,46.36,46.36h0v87.1h40.74v-87.1c0-25.6,20.76-46.36,46.36-46.36s46.36,20.76,46.36,46.36v87.1h40.74v-87.1h0Z"/>
</svg>
